<svg width="50" height="50" viewBox="0 0 50 50" fill="none" xmlns="http://www.w3.org/2000/svg">
<path d="M45.1162 11.0602H40.8914V13.0085L32.752 10L0 22.0917L2.09302 25.1577L4.84496 24.1261V40H45.1549V18.424L47.9069 19.4556L50 16.3897L45.1162 14.5846V11.0602ZM20.3488 18.424V24.8137H6.39533V23.5816L20.3488 18.424ZM20.3488 36.2751H6.39533V28.8252H20.3488V36.2751ZM6.39533 27.6791V25.9599H20.3488V27.6791H6.39533ZM6.39533 37.4213H20.3488V38.8539H6.39533V37.4213ZM21.8991 38.8539V28.8252H43.6047V38.8539H21.8991ZM43.6047 27.6791H21.8991V17.8511L32.752 13.8395L43.6047 17.8511V27.6791ZM47.9069 16.8768L47.2093 17.9084L32.752 12.5501L2.7907 23.6389L2.09302 22.6075L32.752 11.2894L42.4417 14.8711V12.2063H43.5657V15.2722L47.9069 16.8768Z" fill="#77B868"/>
<path d="M25.7751 35.702H39.7287V30.2579H25.7751V35.702ZM27.3255 31.404H38.1782V34.5559H27.3255V31.404Z" fill="#77B868"/>
<path d="M25.7751 24.2406H39.7287V18.7966H25.7751V24.2406ZM27.3255 19.9427H38.1782V23.0946H27.3255V19.9427Z" fill="#77B868"/>
</svg>
