<svg width="50" height="50" viewBox="0 0 50 50" fill="none" xmlns="http://www.w3.org/2000/svg">
<path d="M25 0C15.2438 0 7.30627 7.93749 7.30627 17.6945C7.30627 20.7149 7.89536 23.2991 9.05716 25.373C12.438 31.4113 23.7524 48.0962 24.2322 48.8031L25.0445 50L25.8497 48.7976C25.9636 48.6283 37.2609 31.7554 40.6643 25.9269C41.9923 23.6533 42.6937 20.8069 42.6937 17.6937C42.6937 7.93749 34.7563 0 25 0ZM38.9798 24.9446C36.1365 29.8126 27.6872 42.5299 25.0343 46.5068C22.3198 42.4831 13.581 29.4599 10.7597 24.4203C9.7625 22.6405 9.25768 20.377 9.25768 17.6945C9.25768 9.01345 16.3197 1.95063 25.0008 1.95063C33.6819 1.95063 40.7439 9.01345 40.7439 17.6945C40.7431 20.4621 40.133 22.969 38.9798 24.9446Z" fill="#77B868"/>
<path d="M25 10.8775C20.9123 10.8775 17.5869 14.2029 17.5869 18.2906C17.5869 22.3784 20.9123 25.7046 25 25.7046C29.0877 25.7046 32.4132 22.3784 32.4132 18.2906C32.4132 14.2029 29.0877 10.8775 25 10.8775ZM25 23.7539C21.9875 23.7539 19.5375 21.3032 19.5375 18.2906C19.5375 15.2789 21.9882 12.8281 25 12.8281C28.0118 12.8281 30.4625 15.2789 30.4625 18.2906C30.4625 21.304 28.0126 23.7539 25 23.7539Z" fill="#77B868"/>
</svg>
