<svg width="50" height="50" viewBox="0 0 50 50" fill="none" xmlns="http://www.w3.org/2000/svg">
<g clip-path="url(#clip0)">
<path d="M10.6971 26.8484C9.41914 28.5424 8.54058 29.6717 8.54058 29.6717C7.98149 30.2364 7.98149 31.2044 8.54058 31.7691L19.9619 43.3046C20.521 43.8693 21.4795 43.8693 22.0385 43.3046C22.0385 43.3046 23.1567 42.5786 25.0736 41.0459" stroke="#77B868" stroke-width="2"/>
<path d="M21.5593 37.4965L17.8055 41.2073" stroke="#77B868" stroke-width="2"/>
<path d="M17.8853 33.7858L14.2113 37.5772" stroke="#77B868" stroke-width="2"/>
<path d="M14.2912 30.1557L10.6172 33.8665" stroke="#77B868" stroke-width="2"/>
<path d="M31.543 17.3295C32.5813 18.3782 41.8462 29.6717 41.8462 29.6717C42.4053 30.2364 42.4053 31.2044 41.8462 31.7691L30.4248 43.3046C29.8657 43.8693 28.9073 43.8693 28.3482 43.3046C28.3482 43.3046 21.6392 38.6259 12.2944 29.1877C8.7003 25.5577 7.10291 20.8789 7.66199 20.3143L19.0833 8.77875C19.4827 8.37541 22.2781 9.02075 24.834 10.3114" stroke="#77B868" stroke-width="2" stroke-linecap="round"/>
<path d="M39.9293 26.929C42.1657 23.8636 43.1241 20.7983 42.6449 20.3143L31.2235 8.77875C30.6644 8.21407 25.5528 9.26276 21.8788 12.9735C20.3613 14.5062 16.9269 16.9262 15.2496 20.8789C15.2496 20.8789 16.1282 22.4116 18.4444 21.5243C22.2781 20.0723 24.9138 18.6202 24.9138 18.6202C24.9138 18.6202 28.9073 20.2336 31.3833 17.4102" stroke="#77B868" stroke-width="2" stroke-linecap="round"/>
<path d="M21.2398 4.42268C21.7989 4.98736 21.7989 5.95537 21.2398 6.52005L6.46396 21.4436C5.90487 22.0083 4.94644 22.0083 4.38735 21.4436L1.27243 18.2976C0.713347 17.7329 0.713347 16.7649 1.27243 16.2002L16.0483 1.27663C16.6074 0.711956 17.5658 0.711956 18.1249 1.27663L21.2398 4.42268Z" stroke="#77B868" stroke-width="2"/>
<path d="M29.3865 4.74535C28.8275 5.31003 28.8275 6.27804 29.3865 6.84272L44.2423 21.847C44.8014 22.4116 45.7598 22.4116 46.3189 21.847L49.4338 18.7009C49.9929 18.1362 49.9929 17.1682 49.4338 16.6035L34.5781 1.5993C34.019 1.03463 33.0605 1.03463 32.5015 1.5993L29.3865 4.74535Z" stroke="#77B868" stroke-width="2"/>
<path d="M23.1567 31.8498L32.5014 41.2073" stroke="#77B868" stroke-width="2"/>
<path d="M26.8307 28.139L36.0956 37.5772" stroke="#77B868" stroke-width="2"/>
<path d="M30.4248 24.509L39.6897 33.8665" stroke="#77B868" stroke-width="2"/>
</g>
<defs>
<clipPath id="clip0">
<rect width="56" height="49" fill="white"/>
</clipPath>
</defs>
</svg>
